<?xml version="1.0" encoding="UTF-8" standalone="no"?>
<svg width="340px" height="381px" viewBox="0 0 340 381" version="1.1" xmlns="http://www.w3.org/2000/svg" xmlns:xlink="http://www.w3.org/1999/xlink" xmlns:sketch="http://www.bohemiancoding.com/sketch/ns">
    <g id="Page-1" stroke="none" stroke-width="1" fill="none" fill-rule="evenodd" sketch:type="MSPage">
        <g id="fia-shield" sketch:type="MSArtboardGroup">
            <g sketch:type="MSLayerGroup" id="Shape">
                <path d="M0.630576441,0 C113.188471,0.127852349 225.746366,0 338.304261,0.0681879195 L339.284211,0.221610738 C337.57995,15.8877852 336.429574,31.8948993 334.997995,47.6974497 C326.374436,145.095369 317.946867,242.527383 309.306266,339.925302 C268.565915,351.858188 227.774436,363.654698 187.025564,375.55349 C181.452632,377.309329 175.726316,378.579329 170.281203,380.684631 C168.968922,380.97443 167.818546,379.968658 166.591479,379.678859 C120.823559,366.348121 74.99599,353.25604 29.2365915,339.891208 C19.922807,230.287651 10.6516291,120.67557 1.33784461,11.0634899 C1.26115288,7.3642953 0.374937343,3.70771812 0.630576441,0 L0.630576441,0 Z" fill="#000000" sketch:type="MSShapeGroup"></path>
                <path d="M323.042607,13.7995302 C323.051128,20.2944295 321.832581,26.7126174 321.568421,33.1989933 C313.06416,131.628255 304.653634,230.074564 296.089724,328.503826 C259.149875,339.737785 222.090727,350.605235 185.099749,361.694295 C180.421554,362.964295 175.879699,364.677517 171.141855,365.725906 C170.860652,341.82604 170.792481,27.6757718 171.227068,13.8165772 C221.835088,13.8506711 272.434586,13.8847651 323.042607,13.7995302 Z" fill="#262626" sketch:type="MSShapeGroup"></path>
                <path d="M134.762638,58.6757047 C138.793215,54.6014765 142.977175,50.6806711 146.896974,46.4956376 C154.668403,53.9792617 162.277927,61.6418792 169.81928,69.3556376 C170.424292,68.8186577 171.012262,68.2731544 171.600232,67.710604 C178.715521,60.6616779 185.796724,53.5786577 192.860884,46.4785906 C196.942588,50.5272483 201.049856,54.5588591 205.071912,58.6757047 C197.402739,66.3127517 189.56314,73.8048993 182.158127,81.6891275 C189.384192,88.5420134 196.243841,95.7699329 203.401736,102.69953 C203.938578,103.389933 205.642839,104.361611 204.27943,105.21396 C200.48745,109.02396 196.6273,112.765772 192.843841,116.584295 C185.805245,109.41604 178.630308,102.384161 171.540583,95.2755705 C170.969656,94.7300671 170.390207,94.1930872 169.793716,93.6816779 C162.277927,101.421007 154.58319,108.998389 146.905495,116.575772 C142.994217,112.441879 138.89547,108.48698 134.83933,104.497987 C142.372162,96.7586577 150.07542,89.1727517 157.770157,81.5953691 C150.143591,73.9157047 142.49146,66.2530872 134.762638,58.6757047 L134.762638,58.6757047 Z M134.754117,154.20698 C138.963641,150.217987 142.866398,145.888054 147.19522,142.035436 C154.600232,149.791812 162.388704,157.173154 169.836323,164.886913 C170.441335,164.332886 171.046348,163.770336 171.642839,163.199262 C178.758127,156.201477 185.805245,149.118456 192.818277,142.018389 C196.985195,146.007383 200.998729,150.141275 205.080433,154.20698 C197.402739,161.818456 189.648353,169.361745 182.124042,177.126644 C189.8273,184.618792 197.300483,192.341074 205.037826,199.799128 C201.143591,204.077919 196.865896,207.990201 192.83532,212.141141 C185.77116,204.964362 178.638829,197.864295 171.497977,190.781275 L170.074919,189.221477 C162.158628,196.645436 154.728052,204.580805 146.922538,212.124094 C142.943089,208.058389 138.946598,204.001208 134.847851,200.063356 C142.303992,192.289933 150.058378,184.789262 157.744593,177.23745 C150.288453,169.361745 142.448854,161.85255 134.754117,154.20698 L134.754117,154.20698 Z M171.438328,261.713758 C178.511009,254.554027 185.779681,247.581812 192.724543,240.311275 C196.968152,244.223557 200.87943,248.468255 205.088954,252.414631 C197.445345,260.085772 189.801736,267.756913 182.064393,275.334295 C189.784693,282.937248 197.377175,290.65953 205.114518,298.25396 C200.956122,302.23443 196.934067,306.342752 192.852363,310.391409 C185.83933,303.33396 178.800734,296.302081 171.728052,289.312819 C171.105997,288.690604 170.500984,288.076913 169.88745,287.454698 C162.294969,295.168456 154.711009,302.916309 146.845846,310.348792 C142.926047,306.223423 138.8273,302.26 134.762638,298.262483 C142.525546,290.693624 150.083942,282.920201 157.829806,275.325772 C150.066899,267.765436 142.474418,260.034631 134.77116,252.414631 C138.8273,248.425638 142.917526,244.470738 146.828804,240.345369 C154.838829,247.684094 162.124543,255.80698 170.091962,263.179799 C170.424292,262.813289 171.105997,262.080268 171.438328,261.713758 L171.438328,261.713758 Z" fill="#EA3B3B" sketch:type="MSShapeGroup"></path>
            </g>
        </g>
    </g>
</svg>