<?xml version="1.0" encoding="UTF-8" standalone="no"?>
<svg width="269px" height="98px" viewBox="0 0 269 98" version="1.1" xmlns="http://www.w3.org/2000/svg" xmlns:xlink="http://www.w3.org/1999/xlink" xmlns:sketch="http://www.bohemiancoding.com/sketch/ns">
    <!-- Generator: Sketch 3.3.3 (12072) - http://www.bohemiancoding.com/sketch -->
    <title>Slice 1</title>
    <desc>Created with Sketch.</desc>
    <defs></defs>
    <g id="Page-1" stroke="none" stroke-width="1" fill="none" fill-rule="evenodd" sketch:type="MSPage">
        <g id="jetbrains" sketch:type="MSLayerGroup">
            <g id="Group" sketch:type="MSShapeGroup">
                <g transform="translate(83.000000, 19.000000)" fill="#1D5CA6">
                    <path d="M183.196,13.793 C177.594,10.651 175.333,9.508 172.019,9.508 C168.954,9.508 167.476,11.079 167.476,13.507 C167.476,20.791 185.024,18.791 185.024,35.788 C185.024,45.071 179.907,50.642 171.218,50.642 C165.898,50.642 163.387,48.354 159.498,45.785 L159.498,35.359 C165.1,39.93 167.361,41.644 171.588,41.644 C174.847,41.644 176.135,39.93 176.135,37.072 C176.135,29.077 158.699,32.075 158.699,14.508 C158.699,6.08 162.188,0.511 171.218,0.511 C175.565,0.511 178.276,1.653 183.196,4.368 L183.196,13.793 L183.196,13.793 Z" id="Shape"></path>
                    <path d="M41.056,20.942 L45.029,20.942 C47.772,20.942 50.402,19.513 50.402,15.372 C50.402,11.657 48.458,9.804 44.8,9.804 L41.056,9.804 L41.056,20.942 L41.056,20.942 Z M47.659,0.947 C55.66,0.947 59.176,7.658 59.176,14.944 C59.176,20.228 57.002,24.228 52.544,26.799 C51.303,27.327 50.661,27.488 49.736,27.716 L63.178,49.648 L53.718,49.648 L41.056,29.796 L41.056,49.648 L32.51,49.648 L32.51,0.947 L47.659,0.947 L47.659,0.947 Z" id="Shape"></path>
                    <path d="M83.507,12.516 L78.962,31.512 L88.621,31.512 L83.507,12.516 L83.507,12.516 Z M103.911,49.649 L94.68,49.649 L91.481,39.938 L76.332,39.938 L73.473,49.649 L64.355,49.649 L78.846,0.948 L87.823,0.948 L103.911,49.649 L103.911,49.649 Z" id="Shape"></path>
                    <rect id="Rectangle-path" x="106.765" y="0.948" width="8.545" height="48.701"></rect>
                    <path d="M154.983,49.649 L147.925,49.649 L129.945,18.373 L129.945,49.649 L121.397,49.649 L121.397,0.948 L129.143,0.948 L146.434,30.654 L146.434,0.948 L154.983,0.948 L154.983,49.649 Z" id="Shape"></path>
                    <path d="M12.13,40.654 L8.985,40.654 L8.985,29.227 L13.499,29.227 C16.931,29.227 19.446,31.081 19.446,34.652 C19.446,38.94 17.504,40.654 12.13,40.654 M20.216,22.8 C23.533,20.8 25.59,17.229 25.59,13.088 C25.59,10.929 25.167,8.574 24.098,6.515 C20.961,9.294 17.5,12.317 16.455,13.226 C16.618,13.788 16.701,14.374 16.701,14.944 C16.701,17.514 15.33,20.228 11.783,20.228 L8.984,20.228 L8.984,17.719 L8.984,9.803 L8.984,8.628 L19.186,1.941 C17.721,1.32 15.965,0.946 13.844,0.946 L0.438,0.946 L0.438,49.647 L14.727,49.647 C26.163,49.647 28.563,40.937 28.563,35.365 C28.564,29.654 25.82,24.654 20.216,22.8" id="Shape"></path>
                </g>
                <g id="Shape" fill="#F28E08">
                    <path d="M115.372,14.224 C114.834,13.889 108.583,17.779 104.654,20.518 L103.21,21.518 L93.155,28.268 L93.155,35.748 C95.31,34.28 97.047,32.903 98.291,31.656 L105.814,25.212 C105.814,25.212 109.576,21.832 111.549,19.856 L112.284,19.171 C112.834,18.675 113.208,18.338 113.208,17.873 C113.208,17.849 113.206,17.822 113.203,17.797 C113.181,17.534 115.609,14.372 115.372,14.224"></path>
                    <path d="M46.992,52.25 C46.891,49.653 46.35,46.306 49.695,44.53 C51,43.821 51.76,44.272 52.199,44.714 C53.079,45.597 51.107,49.687 46.992,52.25 M18.348,81.861 C16.033,79.987 14.936,78.403 13.243,74.305 C10.378,67.375 14.346,65.233 21.536,61.154 C20.679,68.534 20.082,83.599 18.348,81.861 M75.938,46.014 L82.059,41.857 L82.059,34.368 L76.57,37.946 C76.57,37.946 71.681,41.12 69.973,42.231 C70.1,41.265 70.231,40.247 70.231,40.247 C71.091,33.88 71.884,27.522 71.884,23.295 C71.884,21.248 71.699,19.699 71.245,18.892 C70.923,18.319 70.432,17.95 69.827,17.824 C69.025,17.661 68.09,17.942 67.196,18.619 C64.391,20.572 62.998,26.286 62.998,35.982 C62.998,39.118 63.15,42.686 63.44,46.661 C63.114,46.954 61.502,48.409 61.502,48.409 C61.523,48.389 58.726,50.85 58.726,50.85 C58.723,50.852 58.653,50.945 58.606,51.004 C56.014,53.293 54.382,54.579 53.76,54.821 C52.987,55.127 52.307,55.194 51.696,55.137 C55.215,52.54 58.087,46.982 58.087,43.678 C58.087,43.299 58.049,42.948 57.968,42.637 C57.395,40.375 56.255,38.733 54.667,37.883 C53.113,37.053 51.232,37.02 49.077,37.787 L48.235,38.128 C44.354,39.885 32.548,46.52 28.886,48.589 C29.319,43.411 31.444,19.8 32.037,7.347 C32.422,-0.697 32.037,4.291 32.037,2.729 C32.037,-3.121 24.688,2.732 20.62,6.8 C18.913,8.508 13.576,13.383 15.51,17.093 C17.587,21.086 19.779,19.751 20.928,26.62 C22.947,38.703 21.405,51.088 21.408,51.887 C20.745,52.197 15.682,54.581 15.682,54.581 C6.961,58.615 0.333,61.682 0.333,66.717 C0.333,67.503 0.495,68.332 0.833,69.223 C8.07,88.152 17.935,98.336 21.822,97.306 C27.462,95.805 27.692,88.394 28.039,77.181 C28.213,71.588 28.414,65.256 29.275,58.132 C29.729,57.846 39.207,50.791 40.97,49.662 C40.125,51.381 40.132,53.042 40.132,53.937 C40.132,56.166 40.451,58.003 40.906,58.951 C41.667,60.546 42.344,61.736 44.085,62.521 C46.297,63.577 48.215,63.87 51.985,62.39 C53.679,61.724 56.581,59.713 59.807,57.008 C60.449,58.109 63.245,62.922 63.245,62.922 L65.806,67.286 C66.961,69.339 68.795,69.922 70.838,68.878 C72.391,68.1 73.416,67.419 73.722,66.417 C73.786,66.208 73.813,66.003 73.813,65.8 C73.813,65.126 73.512,64.488 73.227,63.977 C70.286,58.743 70.09,54.182 70.09,50.713 C70.09,50.488 70.09,50.27 70.092,50.056 C70.596,49.708 75.938,46.014 75.938,46.014"></path>
                </g>
            </g>
        </g>
    </g>
</svg>